#!OML:ASF F:\VICON\USERDATA\INSTALL\rory3\rory3.ASF
:FULLY-SPECIFIED
:DEGREES
822
root 5.81529 15.7546 -10.9104 53.0744 -36.9771 -17.9849
lowerback -6.50057 2.20484 -7.52894
upperback -15.8245 2.1477 -3.40907
thorax -13.9811 1.56818 0.28322
lowerneck -18.0982 8.6245 3.37022
upperneck 6.53747 10.0255 6.38009
head 4.68527 5.45988 2.37548
rclavicle 3.10104e-014 6.67916e-014
rhumerus 156.778 -8.53954 -175.817
rradius 12.5689
rwrist 135.79
rhand -2.92522 1.31182
rfingers 7.12502
rthumb 22.7857 -27.3625
lclavicle 3.10104e-014 6.67916e-014
lhumerus 4.21888 14.3519 -6.37424
lradius 19.962
lwrist -38.5335
lhand 5.17654 34.7208
lfingers 7.12502
lthumb 30.5383 62.2092
rfemur -9.57819 10.2297 21.2332
rtibia 29.8765
rfoot -16.4994 -36.4114
rtoes 51.1793
lfemur -74.6518 7.76691 -17.5273
ltibia 61.0805
lfoot -32.3561 19.937
ltoes -22.4639
823
root 5.82014 15.8363 -10.8646 54.0686 -35.9718 -19.0632
lowerback -6.91656 2.13703 -6.01583
upperback -15.9581 2.14387 -3.00839
thorax -13.7801 1.41027 -0.0810693
lowerneck -17.4543 8.62961 3.06878
upperneck 5.65907 10.1818 6.41541
head 4.28927 5.50554 2.37969
rclavicle -9.38264e-014 -9.22361e-014
rhumerus 156.63 -7.88402 -175.129
rradius 13.0579
rwrist 137.322
rhand -2.78058 1.34938
rfingers 7.12502
rthumb 22.9245 -27.3078
lclavicle -9.38264e-014 -9.22361e-014
lhumerus 4.41392 14.2743 -6.84171
lradius 19.9909
lwrist -38.1433
lhand 5.24835 35.3263
lfingers 7.12502
lthumb 30.6068 62.802
rfemur -7.89286 8.59291 21.9984
rtibia 29.2614
rfoot -12.0896 -39.6951
rtoes 49.3982
lfemur -74.5569 7.76756 -15.9298
ltibia 60.3216
lfoot -32.1803 19.8897
ltoes -22.8541
824
root 5.82571 15.905 -10.8445 54.8752 -35.1994 -19.8929
lowerback -7.14014 1.96912 -4.96414
upperback -16.1539 1.96181 -2.5965
thorax -13.8186 1.22184 -0.188981
lowerneck -16.6863 8.74144 2.79819
upperneck 4.90052 10.4609 6.57559
head 3.90558 5.62184 2.42371
rclavicle -3.97569e-015 -1.90833e-014
rhumerus 156.198 -7.81419 -174.403
rradius 13.6909
rwrist 138.185
rhand -2.6265 1.59699
rfingers 7.12502
rthumb 23.0724 -27.0417
lclavicle -3.97569e-015 -1.90833e-014
lhumerus 4.15795 13.6445 -7.62449
lradius 20.1429
lwrist -37.3539
lhand 5.34709 35.302
lfingers 7.12502
lthumb 30.701 62.76
rfemur -6.10427 7.28122 22.4562
rtibia 28.6294
rfoot -10.5848 -42.171
rtoes 49.0075
lfemur -74.3803 8.23942 -15.1147
ltibia 59.1766
lfoot -30.9213 20.483
ltoes -26.7555
825
root 5.81869 16.0199 -10.7955 55.672 -34.5037 -20.7389
lowerback -7.46266 1.84571 -4.05515
upperback -16.2073 1.85231 -2.19017
thorax -13.6377 1.08505 -0.221184
lowerneck -17.0462 8.85928 2.48242
upperneck 4.79248 10.6493 6.812
head 3.8932 5.72503 2.56922
rclavicle -1.59028e-014 -7.95139e-014
rhumerus 155.958 -7.72615 -173.582
rradius 14.073
rwrist 139.072
rhand -2.5432 1.57659
rfingers 7.12502
rthumb 23.1523 -27.0521
lclavicle -1.59028e-014 -7.95139e-014
lhumerus 4.02618 13.9727 -8.08156
lradius 20.1516
lwrist -37.2425
lhand 5.46922 35.1358
lfingers 7.12502
lthumb 30.8174 62.5719
rfemur -4.28709 6.51296 22.8378
rtibia 28.254
rfoot -11.8068 -44.1943
rtoes 49.4557
lfemur -73.6093 8.06647 -13.7215
ltibia 57.7445
lfoot -30.4187 21.1563
ltoes -27.9187
826
root 5.81013 16.1479 -10.7614 56.2855 -34.464 -21.3179
lowerback -7.50178 1.73358 -4.13948
upperback -16.1984 1.73028 -1.85502
thorax -13.6152 1.06266 0.202674
lowerneck -18.2828 8.95364 2.36075
upperneck 5.11083 10.7054 6.88908
head 4.16856 5.7764 2.69001
rclavicle 9.58142e-014 4.13472e-014
rhumerus 156.017 -6.95992 -172.841
rradius 13.8364
rwrist 140.463
rhand -2.78848 0.36722
rfingers 7.12502
rthumb 22.9169 -28.2909
lclavicle 9.58142e-014 4.13472e-014
lhumerus 4.03002 15.0214 -8.24111
lradius 20.0153
lwrist -37.6757
lhand 5.97533 35.4623
lfingers 7.12502
lthumb 31.2998 62.8062
rfemur -2.55358 6.29941 22.5406
rtibia 28.0303
rfoot -14.5276 -45.8876
rtoes 50.4435
lfemur -72.6565 8.06171 -12.958
ltibia 56.1693
lfoot -30.136 21.2857
ltoes -27.1048
827
root 5.80069 16.2647 -10.72 57.4803 -34.0757 -22.2269
lowerback -8.22575 1.7184 -3.63442
upperback -16.3465 1.76436 -1.47905
thorax -13.347 1.04332 0.357441
lowerneck -18.7619 9.00262 2.3571
upperneck 5.02038 10.7613 6.72336
head 4.21899 5.79597 2.66599
rclavicle 7.63333e-014 9.54166e-015
rhumerus 156.285 -6.5012 -172.002
rradius 13.715
rwrist 141.195
rhand -3.17175 -1.00901
rfingers 7.12502
rthumb 22.5491 -29.7122
lclavicle 7.63333e-014 9.54166e-015
lhumerus 3.86558 15.0491 -8.4215
lradius 20.1694
lwrist -37.2735
lhand 6.1585 36.0685
lfingers 7.12502
lthumb 31.4743 63.3785
rfemur -1.1984 5.60607 22.4667
rtibia 27.7425
rfoot -14.0603 -47.63
rtoes 50.5511
lfemur -72.2602 8.37913 -11.9753
ltibia 54.6547
lfoot -29.361 21.5288
ltoes -27.3625
828
root 5.7963 16.3664 -10.6783 59.0039 -33.2997 -23.4784
lowerback -9.31971 1.84098 -2.38831
upperback -16.5504 1.97304 -1.10961
thorax -12.8961 1.0162 0.101688
lowerneck -18.7273 8.98123 2.11636
upperneck 4.75615 10.8042 6.72197
head 4.11689 5.80657 2.6919
rclavicle -6.24184e-014 3.18055e-015
rhumerus 156.679 -6.66055 -171.012
rradius 13.9052
rwrist 141.299
rhand -3.07491 -1.40317
rfingers 7.12502
rthumb 22.6421 -30.0951
lclavicle -6.24184e-014 3.18055e-015
lhumerus 3.58201 13.6995 -8.78197
lradius 20.6112
lwrist -35.559
lhand 6.28758 37.3928
lfingers 7.12502
lthumb 31.5973 64.6787
rfemur 0.100509 4.68007 22.7175
rtibia 27.4522
rfoot -13.458 -48.6148
rtoes 51.1166
lfemur -72.1179 8.90334 -10.5358
ltibia 53.1116
lfoot -28.3483 21.5896
ltoes -27.1963
829
root 5.79375 16.4729 -10.6496 60.2582 -32.8816 -24.508
lowerback -10.0202 1.84213 -1.69923
upperback -16.7433 1.98533 -0.750841
thorax -12.7012 0.959756 0.133614
lowerneck -19.3308 9.16718 2.01094
upperneck 5.21616 11.0068 6.89434
head 4.33053 5.93152 2.82498
rclavicle -2.78299e-015 1.27222e-014
rhumerus 156.64 -6.53886 -170.321
rradius 14.1992
rwrist 141.846
rhand -2.83016 -1.55401
rfingers 7.12502
rthumb 22.877 -30.217
lclavicle -2.78299e-015 1.27222e-014
lhumerus 3.02282 13.0974 -9.28773
lradius 21.0934
lwrist -34.1557
lhand 7.14051 38.9624
lfingers 7.12502
lthumb 32.4094 66.0853
rfemur 1.18552 3.76666 22.4775
rtibia 27.9239
rfoot -16.5213 -48.3148
rtoes 53.4483
lfemur -71.7014 9.65938 -9.67274
ltibia 51.2491
lfoot -26.8753 21.3505
ltoes -26.3737
830
root 5.77752 16.6514 -10.5948 61.1288 -33.0788 -25.2884
lowerback -10.6514 2.07266 -1.50528
upperback -16.8363 2.29838 -0.691481
thorax -12.4453 1.09533 0.107635
lowerneck -19.2288 9.11978 1.534
upperneck 5.00304 11.0554 7.12321
head 4.20875 5.95669 2.95331
rclavicle -8.74653e-015 -3.49861e-014
rhumerus 157.015 -7.06528 -169.22
rradius 14.5268
rwrist 141.716
rhand -2.43029 -1.70217
rfingers 7.12502
rthumb 23.2606 -30.3172
lclavicle -8.74653e-015 -3.49861e-014
lhumerus 2.94773 12.9503 -9.24442
lradius 21.5925
lwrist -32.7419
lhand 8.13037 41.688
lfingers 7.12502
lthumb 33.351 68.6135
rfemur 2.26219 3.11984 21.5831
rtibia 28.6907
rfoot -20.0304 -47.7106
rtoes 55.6834
lfemur -70.0344 9.02062 -8.04567
ltibia 48.8939
lfoot -27.3823 21.2134
ltoes -20.0328
831
root 5.77049 16.8533 -10.5911 60.2213 -36.4083 -24.1914
lowerback -9.7321 1.91658 -5.32519
upperback -16.8837 2.07668 -1.23141
thorax -13.2757 1.42136 1.5829
lowerneck -18.9772 9.23323 1.59598
upperneck 4.74918 11.2347 6.9187
head 4.09887 6.02483 2.87306
rclavicle 2.0276e-014 -1.90833e-014
rhumerus 157.034 -8.17997 -168.213
rradius 14.9244
rwrist 141.051
rhand -1.90552 -1.16326
rfingers 7.12502
rthumb 23.764 -29.7138
lclavicle 2.0276e-014 -1.90833e-014
lhumerus 2.34535 12.7142 -9.49438
lradius 21.8681
lwrist -32.1752
lhand 8.40306 43.2979
lfingers 7.12502
lthumb 33.6102 70.1673
rfemur 3.55203 3.18155 17.157
rtibia 29.818
rfoot -18.9521 -48.8286
rtoes 55.6655
lfemur -67.4393 9.16892 -10.903
ltibia 46.145
lfoot -25.616 22.0146
ltoes -22.0222
832
root 5.75998 17.024 -10.5455 60.6997 -38.0686 -24.5712
lowerback -9.99908 2.00548 -6.69208
upperback -16.965 2.20819 -1.3498
thorax -13.3464 1.64786 2.20381
lowerneck -19.0004 9.32198 1.69692
upperneck 4.69018 11.3485 6.70926
head 4.09652 6.0678 2.80292
rclavicle -3.1408e-014 -4.13472e-014
rhumerus 157.117 -9.18501 -167.274
rradius 15.1055
rwrist 140.52
rhand -1.52512 -0.550416
rfingers 7.12502
rthumb 24.1288 -29.053
lclavicle -3.1408e-014 -4.13472e-014
lhumerus 0.966054 13.8428 -10.2966
lradius 20.3356
lwrist -37.3916
lhand 5.54762 34.5656
lfingers 7.12502
lthumb 30.8922 61.9875
rfemur 4.18583 2.47267 14.4979
rtibia 30.8274
rfoot -3.5803 -52.063
rtoes 50.7055
lfemur -65.6636 9.62182 -11.5297
ltibia 43.7745
lfoot -23.5818 22.9306
ltoes -23.8741
833
root 5.74432 17.18 -10.4761 62.1942 -38.6255 -25.9855
lowerback -11.064 2.23178 -6.45647
upperback -17.0831 2.57639 -1.22009
thorax -12.8907 1.80004 2.2507
lowerneck -19.4803 9.47509 1.71075
upperneck 5.06081 11.4971 6.82783
head 4.2736 6.16085 2.88934
rclavicle -1.59028e-015 4.13472e-014
rhumerus 157.398 -9.48206 -166.668
rradius 14.7977
rwrist 140.66
rhand -1.66134 -0.718094
rfingers 7.12502
rthumb 23.9982 -29.238
lclavicle -1.59028e-015 4.13472e-014
lhumerus -0.0477661 13.4473 -10.8135
lradius 20.1328
lwrist -37.769
lhand 5.0253 33.9851
lfingers 7.12502
lthumb 30.3941 61.5003
rfemur 4.93056 2.81799 13.4522
rtibia 31.7206
rfoot -6.19387 -52.2934
rtoes 51.3353
lfemur -64.4608 9.47298 -10.0047
ltibia 42.1543
lfoot -23.4668 23.5701
ltoes -19.6023
834
root 5.72971 17.3203 -10.4166 64.0548 -37.7203 -28.1342
lowerback -12.0252 2.53615 -4.56249
upperback -17.2372 2.99102 -0.796239
thorax -12.4109 1.79664 1.7168
lowerneck -19.8821 9.62216 1.84689
upperneck 5.4207 11.609 6.95926
head 4.44336 6.2385 2.95588
rclavicle 3.53837e-014 -2.54444e-014
rhumerus 157.748 -9.93887 -166.219
rradius 14.4544
rwrist 140.692
rhand -1.73343 -0.819768
rfingers 7.12502
rthumb 23.929 -29.3487
lclavicle 3.53837e-014 -2.54444e-014
lhumerus -1.03538 12.4444 -11.4137
lradius 20.0943
lwrist -37.1588
lhand 5.00363 34.203
lfingers 7.12502
lthumb 30.3734 61.722
rfemur 5.76106 2.37863 13.9222
rtibia 32.2004
rfoot 6.74543 -52.6266
rtoes 47.2751
lfemur -63.871 10.2271 -7.56881
ltibia 41.0424
lfoot -22.8519 23.3861
ltoes -15.3298
835
root 5.72849 17.437 -10.4059 65.5422 -35.2657 -30.7368
lowerback -12.1391 2.92453 -1.18332
upperback -17.296 3.43642 -0.00786006
thorax -12.2133 1.66426 0.734096
lowerneck -19.766 9.66161 1.90503
upperneck 5.22035 11.653 7.05043
head 4.35958 6.2629 2.96454
rclavicle 1.20861e-013 4.77083e-014
rhumerus 158.108 -10.2614 -165.796
rradius 14.3738
rwrist 140.776
rhand -1.70287 -0.486623
rfingers 7.12502
rthumb 23.9584 -29.0118
lclavicle 1.20861e-013 4.77083e-014
lhumerus -1.93955 11.9262 -11.817
lradius 19.8721
lwrist -37.1664
lhand 4.86554 34.3287
lfingers 7.12502
lthumb 30.2417 61.8719
rfemur 7.51868 2.13238 16.1144
rtibia 32.5398
rfoot 11.1119 -52.3403
rtoes 47.4047
lfemur -63.5382 12.0407 -4.28023
ltibia 40.2785
lfoot -20.5305 22.4846
ltoes -13.4749
836
root 5.70792 17.6333 -10.3509 66.1046 -36.8455 -31.4212
lowerback -12.513 3.08854 -2.26503
upperback -17.2676 3.68305 -0.238785
thorax -12.0456 1.90085 1.09787
lowerneck -19.4985 9.77775 1.99972
upperneck 4.8766 11.8092 7.11474
head 4.2077 6.33688 2.95457
rclavicle -4.05521e-014 -5.40694e-014
rhumerus 158.548 -11.1076 -165.262
rradius 14.208
rwrist 140.25
rhand -1.78804 -0.325644
rfingers 7.12502
rthumb 23.8767 -28.8615
lclavicle -4.05521e-014 -5.40694e-014
lhumerus -2.71686 11.9381 -12.0794
lradius 19.4728
lwrist -37.8927
lhand 4.48124 33.983
lfingers 7.12502
lthumb 29.875 61.5929
rfemur 8.5994 1.93836 13.4049
rtibia 33.0861
rfoot 18.9198 -50.9829
rtoes 44.681
lfemur -61.6349 10.1487 -2.70593
ltibia 39.1954
lfoot -22.7281 24.397
ltoes -7.71381
